<?xml version="1.0" encoding="UTF-8" standalone="no"?>
<!DOCTYPE svg PUBLIC "-//W3C//DTD SVG 1.1//EN" "http://www.w3.org/Graphics/SVG/1.1/DTD/svg11.dtd">
<svg xmlns="http://www.w3.org/2000/svg" version="1.1" viewBox="0.00 0.00 1024.00 1024.00">
<circle fill="#46a0a0" cx="299.03" cy="329.52" r="3.43"/>
<circle fill="#46a0a0" cx="305.85" cy="345.26" r="3.93"/>
<path fill="#46a0a0" d="
  M 314.33 397.27
  Q 317.00 397.78 319.23 396.10
  A 0.33 0.33 0.0 0 1 319.71 396.54
  Q 317.91 399.52 314.27 399.13
  C 308.49 398.51 307.01 394.52 305.56 389.72
  A 3.38 3.19 19.8 0 0 305.08 388.77
  Q 299.61 381.26 290.99 382.10
  C 286.71 382.52 284.25 385.01 282.94 388.85
  A 1.08 1.07 -55.1 0 0 283.12 389.87
  Q 285.37 392.59 285.74 395.50
  A 0.79 0.78 -86.8 0 0 286.32 396.16
  L 291.61 397.59
  A 1.44 1.43 -56.3 0 0 292.85 397.34
  C 294.61 395.98 296.31 394.33 298.12 394.39
  Q 301.83 394.51 302.93 397.74
  C 304.34 401.91 300.16 405.01 296.32 403.16
  Q 294.92 402.48 292.97 400.20
  A 2.23 2.18 -12.0 0 0 291.83 399.48
  L 286.12 397.94
  A 1.22 1.22 0.0 0 0 284.85 398.35
  Q 282.91 400.74 280.05 401.42
  A 1.86 1.85 87.3 0 0 278.64 402.98
  L 277.06 414.76
  A 1.56 1.21 -38.0 0 1 276.99 415.04
  Q 275.57 418.87 275.33 420.01
  C 274.31 424.83 270.23 427.69 265.49 426.10
  C 257.48 423.41 259.14 412.21 267.22 411.35
  Q 271.75 410.87 274.26 413.99
  A 0.42 0.42 0.0 0 0 275.00 413.78
  L 276.52 402.44
  A 1.14 1.13 24.0 0 0 276.13 401.43
  L 274.27 399.85
  A 3.45 3.43 -82.5 0 1 273.37 398.67
  Q 270.90 393.33 275.57 390.25
  Q 276.24 389.81 280.10 389.01
  A 1.21 1.20 -80.9 0 0 280.90 388.43
  C 282.10 386.28 282.75 384.06 284.71 382.46
  Q 286.24 381.21 289.69 379.16
  A 1.53 1.52 72.8 0 0 290.44 377.73
  C 289.91 369.91 298.05 372.74 297.57 379.27
  A 1.50 1.49 -73.6 0 0 298.34 380.69
  Q 301.91 382.66 305.31 385.63
  Q 306.57 386.74 307.77 386.88
  A 1.52 1.51 81.8 0 0 309.34 384.78
  C 308.27 382.27 305.94 380.51 304.16 378.50
  A 3.06 2.99 -77.1 0 1 303.64 377.65
  Q 302.57 374.92 303.69 372.12
  Q 304.80 369.35 304.85 368.26
  A 1.96 1.95 31.4 0 0 304.60 367.23
  Q 302.95 364.20 300.32 362.10
  A 1.40 1.38 -30.2 0 0 299.23 361.82
  Q 297.85 362.05 296.50 362.25
  C 291.26 363.05 286.88 357.19 290.52 352.56
  C 292.80 349.66 298.29 348.66 300.90 351.66
  Q 303.47 354.61 301.81 359.15
  A 1.97 1.97 0.0 0 0 302.07 360.97
  L 305.54 365.67
  A 0.97 0.97 0.0 0 0 306.87 365.90
  Q 311.49 362.72 315.24 366.88
  A 1.64 1.62 -14.5 0 0 316.14 367.40
  C 317.86 367.74 319.85 368.88 320.19 370.71
  A 0.46 0.46 0.0 0 1 319.41 371.11
  L 316.55 368.25
  A 0.72 0.72 0.0 0 0 315.33 368.63
  Q 314.18 375.02 307.91 373.39
  A 1.05 1.01 -14.5 0 1 307.43 373.12
  L 305.30 370.99
  A 0.28 0.28 0.0 0 0 304.83 371.16
  C 304.30 375.42 306.63 379.95 309.42 383.81
  A 3.25 3.24 75.8 0 0 311.58 385.10
  C 314.66 385.53 318.27 387.33 317.92 391.05
  Q 317.56 394.88 314.24 396.66
  A 0.33 0.33 0.0 0 0 314.33 397.27
  Z"
/>
<path fill="#FFFFFF" d="
  M 172.35 457.01
  A 0.06 0.06 0.0 0 0 172.24 457.05
  L 172.24 546.78
  A 2.64 2.61 -19.8 0 1 171.27 548.81
  Q 163.72 554.98 153.65 561.79
  C 144.57 567.93 133.25 573.47 123.26 577.88
  A 0.67 0.67 0.0 0 1 122.32 577.27
  Q 122.36 430.13 122.28 411.48
  Q 122.23 398.92 123.82 394.21
  C 130.19 375.40 151.06 368.96 168.15 376.64
  Q 173.02 378.83 179.44 384.89
  Q 179.79 385.21 187.80 395.95
  Q 228.04 449.89 234.86 459.28
  C 240.01 466.37 246.22 473.63 250.41 480.40
  A 1.61 1.60 49.4 0 1 250.27 482.29
  Q 243.44 490.29 233.95 498.96
  Q 233.37 499.49 215.79 515.07
  A 0.49 0.48 -38.9 0 1 215.08 515.00
  L 172.35 457.01
  Z"
/>
<path fill="#46a0a0" d="
  M 321.98 392.42
  Q 322.94 390.13 321.22 387.08
  A 0.51 0.51 0.0 0 1 321.74 386.32
  L 322.31 386.40
  A 1.76 1.73 80.8 0 1 323.66 387.39
  Q 324.82 389.86 322.29 392.62
  A 0.19 0.19 0.0 0 1 321.98 392.42
  Z"
/>
<path fill="#FFFFFF" d="
  M 912.97 528.12
  A 0.44 0.44 0.0 0 1 912.57 528.75
  L 891.00 528.75
  A 1.00 1.00 0.0 0 1 890.09 528.17
  L 880.07 507.09
  A 1.47 1.46 77.1 0 0 878.75 506.26
  L 821.60 506.26
  A 0.39 0.39 0.0 0 1 821.25 505.71
  L 829.53 488.05
  A 0.59 0.57 -76.8 0 1 830.05 487.72
  L 871.05 487.72
  A 0.20 0.20 0.0 0 0 871.23 487.43
  L 845.01 432.27
  A 0.32 0.31 44.8 0 0 844.44 432.27
  L 799.45 528.20
  A 0.89 0.88 -77.3 0 1 798.65 528.71
  L 777.28 528.71
  A 0.54 0.54 0.0 0 1 776.79 527.94
  C 794.86 489.90 812.55 452.70 829.94 417.49
  C 832.61 412.08 834.80 409.82 840.50 409.29
  C 845.53 408.82 851.91 408.68 856.01 411.82
  Q 857.49 412.97 859.68 417.35
  C 875.11 448.35 890.27 480.59 907.65 516.34
  C 909.31 519.76 911.20 524.43 912.97 528.12
  Z"
/>
<path fill="#46a0a0" d="
  M 301.89 416.35
  L 306.40 417.56
  A 1.07 1.06 -69.9 0 0 307.64 416.98
  Q 311.15 409.51 318.07 411.34
  C 323.05 412.66 325.20 417.26 323.85 422.15
  C 322.92 425.51 318.38 428.08 314.88 427.65
  C 311.49 427.24 309.39 424.96 307.79 421.59
  Q 306.20 418.26 301.76 417.67
  A 1.62 1.61 30.3 0 0 300.57 417.98
  C 298.55 419.53 295.90 421.14 293.48 420.30
  C 288.16 418.44 288.17 411.24 293.60 409.70
  C 298.50 408.32 300.00 411.16 301.03 415.47
  A 1.22 1.21 0.9 0 0 301.89 416.35
  Z"
/>
<path fill="#FFFFFF" d="
  M 467.71 410.53
  L 467.71 427.86
  A 0.54 0.54 0.0 0 1 467.17 428.40
  Q 421.51 428.44 418.56 428.41
  C 410.96 428.34 404.65 428.96 398.63 431.14
  C 391.04 433.88 383.98 439.95 381.30 447.80
  Q 379.54 452.93 378.95 457.77
  A 0.91 0.91 0.0 0 0 379.85 458.79
  L 461.10 458.79
  A 0.61 0.61 0.0 0 1 461.71 459.40
  L 461.71 476.98
  A 0.41 0.41 0.0 0 1 461.30 477.39
  L 379.60 477.36
  A 0.66 0.65 -86.5 0 0 378.95 477.94
  Q 378.88 478.62 379.69 484.02
  C 382.48 502.76 398.93 509.88 416.00 510.01
  Q 419.54 510.03 467.22 509.84
  A 0.59 0.59 0.0 0 1 467.81 510.43
  L 467.81 528.19
  A 0.40 0.40 0.0 0 1 467.41 528.59
  Q 431.39 528.84 410.03 528.52
  C 393.39 528.27 377.61 521.89 367.45 508.66
  C 357.05 495.13 356.58 477.13 357.24 460.76
  C 357.83 446.35 363.67 431.48 374.99 422.24
  C 387.15 412.32 400.88 409.54 416.49 409.62
  Q 430.60 409.70 466.96 409.78
  A 0.75 0.75 0.0 0 1 467.71 410.53
  Z"
/>
<path fill="#FFFFFF" d="
  M 555.60 511.56
  C 567.45 511.56 582.97 508.13 589.13 496.64
  C 592.48 490.40 593.62 482.88 593.63 476.25
  Q 593.68 434.61 593.56 410.38
  A 0.59 0.59 0.0 0 1 594.15 409.78
  L 614.50 409.78
  A 0.56 0.56 0.0 0 1 615.06 410.34
  Q 615.22 447.50 614.97 479.48
  Q 614.93 485.02 613.28 492.62
  C 607.06 521.36 581.94 530.50 555.59 530.48
  C 529.25 530.47 504.13 521.31 497.94 492.57
  Q 496.30 484.96 496.26 479.42
  Q 496.04 447.44 496.24 410.28
  A 0.56 0.56 0.0 0 1 496.80 409.72
  L 517.15 409.74
  A 0.59 0.59 0.0 0 1 517.74 410.34
  Q 517.60 434.57 517.61 476.21
  C 517.61 482.84 518.74 490.36 522.08 496.60
  C 528.23 508.11 543.75 511.55 555.60 511.56
  Z"
/>
<path fill="#FFFFFF" d="
  M 723.33 489.17
  L 760.07 528.39
  A 0.27 0.27 0.0 0 1 759.87 528.84
  Q 750.54 528.66 735.38 528.65
  Q 733.13 528.65 730.63 526.12
  Q 718.14 513.52 697.78 490.36
  A 1.85 1.84 -20.8 0 0 696.40 489.74
  L 665.05 489.74
  A 0.33 0.33 0.0 0 0 664.72 490.07
  L 664.72 528.22
  A 0.45 0.45 0.0 0 1 664.27 528.67
  L 644.52 528.67
  A 0.58 0.58 0.0 0 1 643.94 528.09
  L 643.94 471.78
  A 0.52 0.52 0.0 0 1 644.47 471.26
  Q 644.85 471.26 709.46 471.23
  Q 711.87 471.22 718.25 469.71
  C 727.37 467.55 732.54 462.67 733.49 452.76
  C 735.25 434.55 722.75 429.14 707.25 428.93
  Q 689.43 428.69 644.36 428.88
  A 0.53 0.53 0.0 0 1 643.83 428.35
  L 643.83 410.09
  A 0.37 0.37 0.0 0 1 644.20 409.72
  C 672.56 409.75 691.15 409.84 704.07 409.66
  C 717.34 409.48 730.55 411.35 741.56 419.37
  C 753.34 427.96 756.56 441.62 755.11 455.59
  Q 753.08 475.23 735.83 484.03
  Q 731.38 486.30 723.59 488.27
  A 0.55 0.54 61.5 0 0 723.33 489.17
  Z"
/>
<path fill="#FFFFFF" d="
  M 71.23 612.19
  Q 71.96 611.94 86.31 609.14
  Q 95.30 607.38 101.26 605.78
  Q 126.23 599.11 145.50 591.48
  Q 173.51 580.38 199.76 565.47
  Q 217.74 555.26 230.34 545.57
  Q 241.79 536.78 242.22 536.45
  C 250.63 530.00 260.23 521.37 266.15 515.66
  Q 287.06 495.47 301.96 471.46
  C 309.32 459.61 314.64 446.57 314.65 432.48
  A 0.12 0.09 -87.9 0 1 314.75 432.36
  Q 314.76 432.36 314.79 432.38
  A 0.08 0.07 -75.1 0 1 314.82 432.44
  Q 315.29 441.39 313.23 449.99
  Q 309.98 463.56 303.97 475.48
  C 303.40 476.62 303.08 478.55 303.08 480.04
  Q 302.78 532.61 302.99 584.39
  A 0.45 0.45 0.0 0 1 302.54 584.84
  Q 294.43 584.85 283.00 584.80
  Q 266.46 584.73 256.66 571.90
  Q 249.64 562.71 245.96 557.23
  C 243.56 553.67 240.60 550.87 238.57 547.73
  A 0.38 0.37 56.5 0 0 238.04 547.62
  Q 224.66 556.92 212.45 564.67
  Q 201.60 571.54 181.32 581.49
  Q 165.01 589.48 139.51 598.27
  Q 134.18 600.11 115.87 604.81
  Q 106.84 607.12 77.06 611.99
  Q 75.79 612.20 71.27 612.39
  A 0.10 0.10 0.0 0 1 71.23 612.19
  Z"
/>
<ellipse fill="#46a0a0" cx="0.00" cy="0.00" transform="translate(302.12,440.48) rotate(-179.4)" rx="7.28" ry="6.94"/>
<circle fill="#46a0a0" cx="286.68" cy="466.28" r="8.95"/>
<circle fill="#46a0a0" cx="271.21" cy="485.32" r="5.26"/>
<circle fill="#46a0a0" cx="255.20" cy="499.83" r="5.58"/>
<ellipse fill="#46a0a0" cx="0.00" cy="0.00" transform="translate(237.06,520.48) rotate(-102.1)" rx="11.96" ry="11.65"/>
<path fill="#46a0a0" d="
  M 403.55 580.66
  C 403.55 584.21 405.01 587.83 407.47 590.35
  C 412.31 595.29 420.66 594.59 426.53 591.69
  A 0.94 0.94 0.0 0 1 427.79 592.13
  L 428.86 594.38
  A 1.21 1.20 -27.5 0 1 428.36 595.95
  C 415.38 603.21 398.01 597.31 398.00 580.66
  C 397.98 564.02 415.33 558.07 428.32 565.31
  A 1.21 1.20 27.3 0 1 428.83 566.88
  L 427.76 569.13
  A 0.94 0.94 0.0 0 1 426.51 569.57
  C 420.63 566.69 412.28 566.00 407.45 570.96
  C 404.99 573.48 403.55 577.10 403.55 580.66
  Z"
/>
<rect fill="#46a0a0" x="-2.69" y="-17.72" transform="translate(546.47,580.63) rotate(0.3)" width="5.38" height="35.44" rx="0.57"/>
<path fill="#46a0a0" d="
  M 806.53 565.43
  L 801.01 570.95
  A 3.18 3.14 -69.4 0 1 799.02 571.87
  L 797.52 571.98
  A 0.80 0.79 16.3 0 1 796.83 570.73
  L 801.21 564.53
  A 1.64 1.63 21.4 0 1 802.76 563.86
  L 806.15 564.32
  A 0.65 0.65 0.0 0 1 806.53 565.43
  Z"
/>
<circle fill="#46a0a0" cx="843.71" cy="568.20" r="2.92"/>
<path fill="#46a0a0" d="
  M 558.00 567.16
  L 561.48 567.17
  A 0.66 0.66 0.0 0 1 562.13 567.83
  L 562.11 573.75
  A 0.74 0.74 0.0 0 0 562.85 574.49
  L 569.47 574.51
  A 0.97 0.97 0.0 0 1 570.43 575.48
  L 570.42 577.76
  A 0.95 0.95 0.0 0 1 569.47 578.70
  L 563.08 578.68
  A 0.78 0.77 -86.9 0 0 562.31 579.38
  Q 561.93 583.44 562.05 589.64
  C 562.15 594.41 566.10 594.44 569.77 593.58
  A 1.12 1.12 0.0 0 1 571.12 594.42
  L 571.66 596.69
  A 1.12 1.12 0.0 0 1 570.89 598.02
  Q 566.83 599.22 563.09 598.57
  C 557.84 597.66 556.78 593.71 556.76 588.50
  Q 556.73 582.41 556.69 579.60
  A 0.70 0.70 0.0 0 0 556.00 578.91
  L 553.51 578.90
  A 0.95 0.94 0.2 0 1 552.57 577.96
  L 552.58 575.17
  A 0.89 0.88 0.2 0 1 553.47 574.29
  L 556.21 574.30
  A 0.84 0.84 0.0 0 0 557.05 573.46
  L 557.07 568.08
  A 0.93 0.93 0.0 0 1 558.00 567.16
  Z"
/>
<path fill="#46a0a0" d="
  M 713.98 567.96
  L 713.98 573.89
  A 0.74 0.74 0.0 0 0 714.72 574.63
  L 721.35 574.63
  A 0.97 0.97 0.0 0 1 722.32 575.60
  L 722.32 577.88
  A 0.95 0.95 0.0 0 1 721.37 578.83
  L 714.97 578.83
  A 0.78 0.77 -87.1 0 0 714.20 579.53
  Q 713.83 583.60 713.97 589.81
  C 714.08 594.59 718.04 594.61 721.72 593.74
  A 1.12 1.12 0.0 0 1 723.07 594.57
  L 723.62 596.85
  A 1.12 1.12 0.0 0 1 722.85 598.18
  Q 718.79 599.40 715.04 598.76
  C 709.78 597.86 708.70 593.91 708.66 588.69
  Q 708.61 582.59 708.57 579.77
  A 0.70 0.70 0.0 0 0 707.87 579.08
  L 705.38 579.08
  A 0.95 0.94 -0.0 0 1 704.43 578.14
  L 704.43 575.34
  A 0.89 0.88 -0.0 0 1 705.32 574.46
  L 708.07 574.46
  A 0.84 0.84 0.0 0 0 708.91 573.62
  L 708.91 568.23
  A 0.93 0.93 0.0 0 1 709.84 567.30
  L 713.32 567.30
  A 0.66 0.66 0.0 0 1 713.98 567.96
  Z"
/>
<path fill="#46a0a0" d="
  M 771.65 567.54
  L 775.09 567.52
  A 0.65 0.65 0.0 0 1 775.74 568.17
  L 775.78 574.03
  A 0.73 0.73 0.0 0 0 776.52 574.76
  L 783.08 574.71
  A 0.96 0.96 0.0 0 1 784.04 575.66
  L 784.06 577.92
  A 0.94 0.94 0.0 0 1 783.12 578.86
  L 776.80 578.91
  A 0.77 0.76 -87.5 0 0 776.04 579.60
  Q 775.70 583.63 775.88 589.77
  C 776.02 594.49 779.93 594.49 783.57 593.60
  A 1.11 1.11 0.0 0 1 784.91 594.41
  L 785.47 596.66
  A 1.11 1.11 0.0 0 1 784.71 597.98
  Q 780.71 599.22 777.00 598.61
  C 771.79 597.75 770.70 593.86 770.62 588.70
  Q 770.53 582.67 770.47 579.88
  A 0.69 0.69 0.0 0 0 769.78 579.20
  L 767.32 579.22
  A 0.94 0.93 -0.4 0 1 766.37 578.29
  L 766.35 575.53
  A 0.88 0.87 -0.4 0 1 767.23 574.65
  L 769.94 574.63
  A 0.83 0.83 0.0 0 0 770.77 573.80
  L 770.73 568.47
  A 0.92 0.92 0.0 0 1 771.65 567.54
  Z"
/>
<path fill="#46a0a0" d="
  M 431.4917 586.0861
  A 13.62 12.68 -179.1 0 1 445.3092 573.6216
  A 13.62 12.68 -179.1 0 1 458.7283 586.5139
  A 13.62 12.68 -179.1 0 1 444.9108 598.9784
  A 13.62 12.68 -179.1 0 1 431.4917 586.0861
  Z
  M 453.26 586.33
  A 8.11 8.11 0.0 0 0 445.15 578.22
  A 8.11 8.11 0.0 0 0 437.04 586.33
  A 8.11 8.11 0.0 0 0 445.15 594.44
  A 8.11 8.11 0.0 0 0 453.26 586.33
  Z"
/>
<path fill="#46a0a0" d="
  M 490.08 596.38
  L 490.47 593.46
  A 0.82 0.81 13.2 0 1 491.54 592.80
  C 495.23 594.04 500.34 595.06 504.04 593.52
  A 2.08 1.95 -24.8 0 0 505.15 590.78
  C 504.32 589.16 500.14 588.72 496.33 587.94
  C 493.62 587.39 490.26 584.38 490.19 581.32
  C 489.97 572.67 502.87 573.02 508.40 575.26
  A 1.13 1.13 0.0 0 1 509.09 576.45
  L 508.75 578.95
  A 0.80 0.79 16.4 0 1 507.62 579.56
  C 504.49 578.09 499.84 577.46 496.58 578.96
  A 2.29 2.15 67.0 0 0 495.53 581.82
  C 496.40 584.05 504.79 583.62 508.30 586.23
  C 511.69 588.76 511.30 594.07 508.07 596.50
  C 503.24 600.12 495.98 599.06 490.75 597.43
  A 0.96 0.96 0.0 0 1 490.08 596.38
  Z"
/>
<path fill="#46a0a0" d="
  M 792.99 588.31
  A 0.68 0.68 0.0 0 0 792.39 589.31
  C 795.61 595.41 801.16 595.38 806.86 592.31
  A 0.98 0.97 -20.8 0 1 808.28 592.94
  L 808.74 594.86
  A 1.68 1.67 68.4 0 1 807.95 596.70
  C 799.81 601.41 788.85 598.70 786.98 588.82
  C 786.09 584.15 787.77 578.57 791.86 576.12
  C 802.05 570.05 810.30 576.12 810.65 587.11
  A 1.16 1.15 89.0 0 1 809.50 588.31
  L 792.99 588.31
  Z
  M 792.54 583.99
  L 805.28 584.11
  A 0.13 0.13 0.0 0 0 805.41 583.98
  L 805.41 583.91
  A 6.33 5.44 0.5 0 0 799.12 578.41
  L 798.78 578.41
  A 6.33 5.44 0.5 0 0 792.41 583.79
  L 792.41 583.86
  A 0.13 0.13 0.0 0 0 792.54 583.99
  Z"
/>
<path fill="#46a0a0" d="
  M 468.12 597.46
  A 0.75 0.75 0.0 0 1 467.38 598.20
  L 463.86 598.19
  A 0.79 0.78 -89.9 0 1 463.07 597.39
  L 463.12 574.91
  A 0.76 0.75 -85.7 0 1 463.99 574.15
  L 468.76 574.85
  A 0.59 0.57 -46.1 0 0 469.00 574.84
  C 475.72 573.16 483.72 573.70 485.37 581.47
  Q 485.68 582.93 485.60 589.39
  Q 485.55 593.05 485.50 597.30
  A 0.91 0.90 -89.6 0 1 484.60 598.20
  L 481.25 598.19
  A 0.89 0.88 0.1 0 1 480.36 597.30
  Q 480.41 587.59 480.37 584.94
  C 480.31 578.48 475.36 577.34 470.11 579.11
  Q 468.09 579.78 468.20 582.18
  Q 468.32 584.97 468.12 597.46
  Z"
/>
<path fill="#46a0a0" d="
  M 600.7065 586.1080
  A 13.75 12.61 -1.3 0 1 587.2461 599.0268
  A 13.75 12.61 -1.3 0 1 573.2135 586.7320
  A 13.75 12.61 -1.3 0 1 586.6739 573.8132
  A 13.75 12.61 -1.3 0 1 600.7065 586.1080
  Z
  M 595.08 586.42
  A 8.06 8.06 0.0 0 0 587.02 578.36
  A 8.06 8.06 0.0 0 0 578.96 586.42
  A 8.06 8.06 0.0 0 0 587.02 594.48
  A 8.06 8.06 0.0 0 0 595.08 586.42
  Z"
/>
<path fill="#46a0a0" d="
  M 636.45 583.86
  A 1.50 1.49 -10.3 0 0 637.93 581.73
  L 637.85 581.55
  A 5.07 5.06 -9.5 0 0 633.82 578.68
  Q 628.75 578.13 625.01 579.83
  A 1.04 1.04 0.0 0 1 623.57 579.13
  L 622.93 576.42
  A 1.10 1.10 0.0 0 1 623.77 575.08
  C 629.65 573.84 638.72 572.17 642.03 579.04
  Q 642.87 580.79 642.84 585.13
  Q 642.80 591.13 642.69 597.34
  A 0.95 0.94 -87.4 0 1 641.68 598.27
  L 636.73 597.96
  A 3.43 3.42 38.7 0 0 635.63 598.08
  C 629.16 599.92 619.93 598.95 621.08 590.11
  C 622.01 582.92 630.34 583.34 636.45 583.86
  Z
  M 637.65 592.24
  L 637.40 588.95
  A 1.36 1.36 0.0 0 0 635.95 587.70
  L 630.04 588.13
  A 4.48 3.01 -4.2 0 0 625.80 591.46
  A 4.48 3.01 -4.2 0 0 630.48 594.13
  L 636.39 593.70
  A 1.36 1.36 0.0 0 0 637.65 592.24
  Z"
/>
<path fill="#46a0a0" d="
  M 661.99 588.24
  A 0.70 0.70 0.0 0 0 661.38 589.28
  Q 664.66 595.19 671.53 594.06
  C 673.25 593.77 674.84 592.79 676.25 592.20
  A 1.11 1.11 0.0 0 1 677.75 592.97
  L 678.33 595.43
  A 1.44 1.43 71.4 0 1 677.52 597.08
  C 666.19 602.06 652.39 596.13 656.85 581.80
  C 658.91 575.16 666.86 572.52 672.91 574.79
  C 678.20 576.77 680.30 582.14 679.72 587.45
  A 0.88 0.87 -87.1 0 1 678.85 588.24
  L 661.99 588.24
  Z
  M 661.76 584.11
  L 674.46 583.97
  A 0.16 0.16 0.0 0 0 674.62 583.81
  L 674.62 583.71
  A 6.29 5.62 -0.6 0 0 668.27 578.16
  L 667.83 578.16
  A 6.29 5.62 -0.6 0 0 661.60 583.85
  L 661.60 583.95
  A 0.16 0.16 0.0 0 0 661.76 584.11
  Z"
/>
<path fill="#46a0a0" d="
  M 682.55 596.32
  L 682.94 593.42
  A 0.81 0.80 13.3 0 1 684.00 592.77
  C 687.66 594.01 692.72 595.03 696.39 593.51
  A 2.06 1.93 -24.7 0 0 697.50 590.80
  C 696.68 589.19 692.54 588.74 688.76 587.96
  C 686.08 587.41 682.75 584.42 682.69 581.39
  C 682.49 572.81 695.28 573.18 700.75 575.42
  A 1.12 1.12 0.0 0 1 701.44 576.60
  L 701.09 579.08
  A 0.79 0.78 16.6 0 1 699.97 579.68
  C 696.87 578.21 692.26 577.58 689.03 579.06
  A 2.27 2.13 67.1 0 0 687.98 581.89
  C 688.84 584.11 697.16 583.70 700.63 586.29
  C 703.99 588.81 703.59 594.07 700.38 596.47
  C 695.59 600.05 688.39 598.99 683.21 597.36
  A 0.96 0.95 -77.5 0 1 682.55 596.32
  Z"
/>
<path fill="#46a0a0" d="
  M 745.04 579.08
  L 744.47 576.68
  A 0.82 0.82 0.0 0 1 744.99 575.72
  C 752.27 573.14 764.49 572.51 764.20 583.50
  Q 764.11 586.90 764.06 597.77
  A 0.84 0.83 2.9 0 1 763.15 598.59
  L 758.18 598.12
  A 1.71 1.67 37.6 0 0 757.50 598.20
  C 752.84 599.72 746.78 599.94 743.62 595.84
  C 740.90 592.31 741.93 587.46 745.98 585.28
  C 749.43 583.42 753.69 583.82 757.76 584.02
  A 1.34 1.34 0.0 0 0 759.04 582.11
  L 758.46 580.89
  A 3.76 3.70 86.9 0 0 756.38 578.99
  Q 752.51 577.57 746.11 579.67
  A 0.84 0.83 -15.8 0 1 745.04 579.08
  Z
  M 758.97 592.23
  L 758.76 588.91
  A 1.36 1.36 0.0 0 0 757.32 587.64
  L 750.80 588.05
  A 3.61 2.96 -3.6 0 0 747.39 591.23
  L 747.40 591.35
  A 3.61 2.96 -3.6 0 0 751.18 594.08
  L 757.70 593.67
  A 1.36 1.36 0.0 0 0 758.97 592.23
  Z"
/>
<path fill="#46a0a0" d="
  M 532.40 574.92
  A 0.76 0.76 0.0 0 1 533.16 574.17
  L 536.75 574.17
  A 0.81 0.80 -90.0 0 1 537.55 574.98
  L 537.55 597.92
  A 0.78 0.77 -85.8 0 1 536.67 598.69
  L 531.80 597.99
  A 0.60 0.58 -46.2 0 0 531.56 598.00
  C 524.70 599.73 516.54 599.20 514.84 591.28
  Q 514.52 589.79 514.59 583.20
  Q 514.63 579.46 514.67 575.13
  A 0.93 0.92 -89.7 0 1 515.59 574.21
  L 519.00 574.21
  A 0.91 0.90 -0.0 0 1 519.91 575.11
  Q 519.89 585.02 519.93 587.72
  C 520.01 594.31 525.06 595.47 530.41 593.65
  Q 532.47 592.96 532.36 590.51
  Q 532.23 587.67 532.40 574.92
  Z"
/>
<path fill="#46a0a0" d="
  M 605.56 598.17
  A 0.83 0.82 -89.8 0 1 604.74 597.34
  L 604.83 574.76
  A 0.44 0.44 0.0 0 1 605.27 574.32
  L 618.17 574.37
  A 1.04 1.04 0.0 0 1 619.20 575.55
  L 618.85 578.11
  A 1.00 0.99 9.1 0 1 617.68 578.95
  Q 616.07 578.64 612.78 579.00
  Q 610.38 579.26 610.24 581.84
  Q 610.09 584.61 610.09 597.30
  A 0.88 0.88 0.0 0 1 609.21 598.19
  L 605.56 598.17
  Z"
/>
<path fill="#46a0a0" d="
  M 726.58 597.55
  L 726.58 574.96
  A 0.44 0.44 0.0 0 1 727.02 574.52
  L 739.93 574.52
  A 1.04 1.04 0.0 0 1 740.96 575.70
  L 740.62 578.26
  A 1.00 0.99 8.9 0 1 739.46 579.10
  Q 737.84 578.80 734.55 579.17
  Q 732.15 579.44 732.02 582.02
  Q 731.88 584.79 731.93 597.49
  A 0.88 0.88 0.0 0 1 731.05 598.38
  L 727.40 598.38
  A 0.83 0.82 -90.0 0 1 726.58 597.55
  Z"
/>
<path fill="#46a0a0" d="
  M 830.13 598.00
  C 822.28 599.96 815.53 597.15 812.95 589.12
  A 3.44 3.11 37.4 0 1 812.79 588.25
  C 812.14 576.60 819.59 572.98 829.94 574.49
  Q 832.66 574.88 835.24 574.51
  A 0.70 0.69 85.6 0 1 836.03 575.19
  Q 836.10 582.21 836.17 598.56
  C 836.22 610.00 824.02 610.37 816.49 606.52
  A 1.12 1.11 -63.9 0 1 815.99 605.05
  L 816.95 603.00
  A 1.03 1.02 -63.3 0 1 818.36 602.53
  Q 822.22 604.60 828.22 603.51
  A 2.90 2.90 0.0 0 0 830.35 601.88
  L 831.43 599.58
  A 1.13 1.13 0.0 0 0 830.13 598.00
  Z
  M 831.23 592.05
  L 831.17 580.83
  A 2.17 2.17 0.0 0 0 828.99 578.67
  L 825.71 578.68
  A 7.59 7.55 -0.3 0 0 818.16 586.27
  L 818.16 586.73
  A 7.59 7.55 -0.3 0 0 825.79 594.24
  L 829.07 594.23
  A 2.17 2.17 0.0 0 0 831.23 592.05
  Z"
/>
<rect fill="#46a0a0" x="-2.66" y="-12.09" transform="translate(843.64,586.34) rotate(0.1)" width="5.32" height="24.18" rx="0.78"/>
<path fill="#46a0a0" d="
  M 870.34 575.61
  A 1.07 1.06 19.5 0 1 870.94 576.86
  L 870.27 579.35
  A 0.88 0.87 -69.3 0 1 869.04 579.91
  C 863.90 577.39 856.85 577.98 855.53 584.45
  C 853.91 592.37 862.34 596.68 868.70 593.01
  A 0.90 0.89 62.1 0 1 869.95 593.40
  L 871.07 595.76
  A 1.32 1.31 -35.6 0 1 870.82 597.25
  Q 870.01 598.07 868.01 598.51
  C 860.55 600.15 852.27 598.17 850.44 589.62
  C 847.79 577.26 860.13 571.13 870.34 575.61
  Z"
/>
<path fill="#46a0a0" d="
  M 876.15 579.05
  L 875.57 576.68
  A 0.82 0.81 -17.1 0 1 876.08 575.72
  C 883.28 573.11 895.40 572.39 895.19 583.30
  Q 895.13 586.67 895.16 597.45
  A 0.83 0.83 0.0 0 1 894.26 598.28
  L 889.32 597.84
  A 1.70 1.66 37.2 0 0 888.65 597.93
  C 884.04 599.47 878.03 599.73 874.86 595.69
  C 872.14 592.21 873.13 587.39 877.13 585.20
  C 880.54 583.33 884.77 583.69 888.81 583.86
  A 1.33 1.33 0.0 0 0 890.06 581.96
  L 889.48 580.75
  A 3.73 3.67 86.5 0 0 887.40 578.88
  Q 883.55 577.50 877.22 579.63
  A 0.83 0.82 -16.2 0 1 876.15 579.05
  Z
  M 890.12 592.43
  L 889.99 589.25
  A 1.31 1.31 0.0 0 0 888.62 588.00
  L 882.27 588.28
  A 3.87 2.82 -2.5 0 0 878.52 591.26
  L 878.53 591.42
  A 3.87 2.82 -2.5 0 0 882.52 594.07
  L 888.87 593.79
  A 1.31 1.31 0.0 0 0 890.12 592.43
  Z"
/>
<rect fill="#46a0a0" x="-24.86" y="-1.63" transform="translate(349.36,584.60) rotate(-0.1)" width="49.72" height="3.26" rx="0.79"/>
<rect fill="#46a0a0" x="917.03" y="583.14" width="49.72" height="3.30" rx="1.21"/>
</svg>
